<?xml version="1.0" standalone="no"?>
<!DOCTYPE svg PUBLIC "-//W3C//DTD SVG 20010904//EN"
 "http://www.w3.org/TR/2001/REC-SVG-20010904/DTD/svg10.dtd">
<svg version="1.0" xmlns="http://www.w3.org/2000/svg"
 width="1280.000000pt" height="1280.000000pt" viewBox="0 0 1280.000000 1280.000000"
 preserveAspectRatio="xMidYMid meet">
<metadata>
Created by potrace 1.11, written by Peter Selinger 2001-2013
</metadata>
<g transform="translate(0.000000,1280.000000) scale(0.100000,-0.100000)"
fill="#000000" stroke="none">
<path d="M6140 11199 c-117 -34 -179 -65 -325 -165 -110 -75 -177 -140 -235
-224 -78 -115 -96 -169 -111 -335 -5 -66 -17 -185 -26 -265 -26 -245 -28 -401
-5 -500 32 -143 63 -261 89 -340 29 -88 36 -119 57 -265 19 -139 27 -305 16
-370 -12 -77 -71 -123 -314 -245 -111 -56 -219 -112 -241 -124 -111 -64 -219
-121 -300 -157 -49 -23 -123 -56 -163 -75 -40 -19 -86 -34 -102 -34 -16 0 -39
-4 -52 -9 -13 -5 -41 -14 -63 -20 -22 -7 -49 -16 -60 -21 -11 -5 -45 -19 -75
-30 -30 -11 -83 -37 -117 -57 -69 -43 -234 -179 -267 -221 -27 -34 -75 -76
-127 -111 -80 -54 -159 -134 -192 -195 -64 -116 -124 -261 -141 -341 -9 -44
-22 -96 -28 -115 -6 -19 -13 -190 -17 -380 -7 -317 -9 -349 -28 -390 -11 -25
-28 -70 -38 -101 -9 -31 -37 -83 -61 -115 -24 -32 -44 -62 -44 -66 0 -5 -17
-36 -38 -71 -50 -82 -55 -97 -96 -267 -56 -231 -76 -364 -76 -495 0 -54 -4
-112 -9 -129 -6 -17 -15 -58 -22 -91 -6 -33 -29 -122 -50 -198 -37 -134 -39
-139 -91 -191 -217 -219 -443 -487 -501 -596 -11 -19 -25 -42 -32 -50 -25 -29
-93 -189 -105 -247 -21 -100 -5 -323 34 -478 46 -180 48 -197 36 -267 -16 -84
-40 -131 -155 -294 -55 -78 -109 -156 -120 -175 -11 -18 -24 -40 -30 -49 -5
-8 -56 -60 -111 -115 -105 -103 -170 -193 -218 -302 -45 -103 -55 -160 -57
-319 -3 -148 -3 -149 35 -257 53 -154 117 -281 189 -369 161 -199 195 -232
338 -329 185 -126 325 -179 569 -214 154 -23 469 -37 568 -25 48 5 164 17 257
26 183 17 256 29 435 69 63 14 160 32 215 40 188 28 220 33 275 51 42 13 99
18 240 20 201 4 249 10 335 49 32 14 61 25 66 25 12 0 167 103 213 142 39 33
110 121 194 241 40 57 51 65 135 104 51 23 145 63 211 89 l118 48 87 -12 c223
-31 409 -63 576 -100 176 -40 197 -46 202 -58 6 -15 -21 -67 -57 -114 -16 -20
-44 -67 -63 -105 -18 -39 -62 -118 -96 -176 -49 -85 -63 -118 -68 -162 -6 -55
-5 -56 28 -76 26 -16 51 -21 104 -21 39 0 131 -12 205 -26 514 -97 846 -117
1794 -109 352 3 642 8 645 10 4 2 87 8 186 14 246 15 340 26 624 72 151 24
262 48 290 60 25 12 76 31 113 44 81 28 174 82 333 191 98 67 138 103 216 191
161 184 141 150 291 503 42 101 98 303 98 357 0 39 -31 140 -65 210 -39 79
-153 206 -294 328 -72 62 -88 82 -138 175 -31 58 -69 125 -86 149 -40 58 -93
192 -118 299 -17 71 -20 106 -15 193 3 59 12 126 20 150 31 97 38 312 11 401
-24 84 -129 240 -187 278 -62 41 -177 146 -278 253 -87 92 -162 150 -283 218
-103 58 -183 116 -209 151 -20 30 -50 125 -84 273 -9 39 -25 93 -35 120 -10
28 -23 68 -28 90 -5 22 -18 75 -29 117 -16 61 -19 98 -15 180 l5 103 -77 228
c-41 125 -98 274 -125 330 -43 89 -52 123 -79 271 -28 151 -31 188 -31 366 0
109 -5 234 -11 277 -16 122 -65 277 -126 402 -48 100 -66 125 -138 197 -45 45
-97 92 -116 103 -18 11 -88 74 -154 138 -66 65 -130 125 -141 134 -36 28 -151
90 -207 111 -115 44 -135 51 -202 68 -38 10 -88 27 -110 38 -22 11 -92 39
-155 63 -63 23 -137 55 -163 71 -26 15 -50 28 -53 28 -3 0 -63 34 -134 75 -70
41 -175 97 -232 125 -127 60 -148 76 -184 137 -28 49 -35 76 -56 217 -21 152
20 494 73 598 33 65 49 123 59 219 5 52 14 119 20 150 12 64 0 321 -24 542
-23 203 -88 374 -204 535 -108 150 -225 238 -382 286 -189 57 -347 61 -510 15z
m473 -441 c18 -11 37 -26 42 -32 23 -25 141 -100 275 -174 71 -39 109 -70 138
-114 25 -39 26 -46 32 -222 8 -273 -8 -686 -30 -761 -5 -16 -12 -54 -15 -83
-6 -43 -16 -65 -53 -110 -67 -84 -227 -236 -306 -292 -12 -8 -37 -29 -56 -46
-60 -55 -87 -74 -145 -99 -96 -43 -269 -31 -362 26 -92 55 -186 136 -293 252
-148 159 -183 219 -206 346 -9 53 -20 103 -25 112 -16 30 -20 99 -6 99 8 0 7
4 -3 10 -8 5 -10 10 -4 10 13 0 24 69 13 76 -7 4 -4 67 7 160 4 36 8 41 24 37
16 -4 20 0 20 17 0 17 -4 21 -19 17 -19 -5 -20 1 -15 167 7 259 8 265 46 298
18 16 51 33 73 39 22 5 62 17 89 25 27 8 55 13 63 10 17 -7 144 19 187 38 17
7 60 24 96 36 36 12 72 28 80 34 8 7 49 27 90 46 41 18 102 48 135 67 71 39
86 40 128 11z m-662 -1821 c80 -71 142 -115 169 -122 3 -1 32 -15 65 -31 56
-27 67 -29 168 -27 89 2 117 6 152 24 40 20 159 109 257 193 20 17 60 49 88
71 29 22 67 53 86 68 l33 28 -4 -33 c-10 -83 -14 -377 -5 -383 6 -3 10 -16 11
-28 0 -12 3 -16 6 -9 2 6 9 12 14 12 4 0 6 -6 3 -14 -7 -17 34 -76 52 -76 6 0
25 -15 42 -34 39 -44 145 -114 269 -176 54 -27 101 -50 105 -50 11 0 155 -95
174 -115 10 -9 44 -29 77 -43 33 -14 83 -38 111 -54 105 -57 183 -90 251 -104
39 -8 77 -19 85 -23 8 -4 55 -20 104 -36 97 -30 229 -93 316 -153 30 -20 107
-89 170 -153 63 -64 126 -123 140 -131 14 -9 55 -43 92 -77 55 -51 71 -74 98
-139 18 -42 43 -98 56 -124 13 -26 33 -85 43 -131 11 -45 23 -96 27 -112 5
-17 9 -140 11 -275 2 -137 10 -292 18 -352 13 -96 22 -126 55 -178 5 -8 19
-48 31 -89 12 -40 38 -103 58 -140 70 -130 121 -267 153 -406 11 -49 19 -101
17 -115 -1 -14 -3 -61 -3 -105 -1 -90 5 -117 69 -295 13 -36 31 -105 41 -155
9 -49 32 -127 51 -172 19 -45 33 -86 32 -92 -2 -6 -19 -1 -39 12 -19 12 -49
23 -66 24 -18 1 -47 9 -65 19 -53 27 -153 35 -239 18 -41 -8 -91 -14 -110 -14
-19 0 -55 -7 -80 -14 -106 -34 -244 -86 -268 -103 -15 -10 -36 -23 -47 -29
-95 -53 -175 -102 -201 -121 l-32 -24 -31 56 c-17 30 -31 61 -31 69 0 7 -6 29
-14 47 -8 19 -19 79 -26 133 -9 76 -18 109 -38 140 -28 44 -96 177 -124 242
-9 21 -24 73 -33 114 -10 41 -21 80 -25 85 -13 16 -21 134 -24 370 -3 180 -6
228 -21 265 -9 25 -19 79 -21 120 l-4 74 57 86 c32 47 61 87 65 90 4 4 28 47
53 98 62 126 75 221 80 588 2 154 2 290 -1 302 -8 28 -33 36 -54 17 -14 -13
-18 -45 -23 -223 -8 -260 -23 -447 -43 -537 -16 -67 -58 -155 -107 -220 -85
-114 -107 -146 -107 -155 0 -6 -5 -10 -12 -10 -7 0 -26 -13 -43 -30 -16 -16
-62 -45 -100 -63 -39 -19 -95 -51 -125 -71 -30 -20 -59 -36 -65 -36 -5 0 -23
-7 -40 -16 -59 -31 -349 -46 -500 -26 -102 14 -248 38 -302 52 -102 24 -121
29 -171 39 -29 6 -61 15 -72 21 -26 14 -65 13 -78 -3 -6 -6 -13 -24 -17 -40
-6 -24 -3 -29 28 -42 19 -8 49 -17 67 -20 18 -3 49 -14 70 -25 21 -11 46 -16
59 -13 12 3 32 1 44 -5 30 -13 160 -38 279 -53 l96 -11 -12 -27 c-6 -14 -19
-40 -28 -56 -25 -47 -40 -129 -45 -252 -5 -124 -6 -127 -83 -158 -38 -15 -87
-19 -332 -24 -171 -4 -291 -10 -297 -16 -6 -6 -7 -16 -2 -24 7 -10 58 -13 252
-12 134 1 273 6 309 12 66 10 158 48 179 73 7 8 13 59 15 118 4 115 30 227 71
305 l25 50 164 6 c90 4 188 11 218 17 29 6 78 15 108 21 74 14 104 26 176 71
34 21 64 38 68 38 4 0 23 12 42 26 19 15 38 24 41 20 13 -13 8 -240 -6 -291
-16 -60 -72 -216 -82 -230 -3 -5 -25 -44 -47 -86 -22 -42 -50 -88 -62 -102
-12 -14 -28 -35 -34 -46 -6 -11 -39 -60 -73 -109 -80 -114 -123 -226 -162
-422 -38 -191 -51 -265 -61 -345 -12 -94 -8 -125 46 -370 l15 -70 -30 -25
c-54 -46 -378 -170 -574 -220 -65 -16 -139 -39 -165 -51 -30 -13 -84 -24 -152
-30 -58 -5 -132 -16 -166 -24 -85 -21 -405 -20 -494 1 -36 8 -125 21 -198 29
-73 8 -158 23 -190 34 -31 10 -131 43 -222 71 -91 29 -187 63 -213 76 -68 33
-249 94 -280 94 -36 0 -35 20 8 98 66 123 121 478 97 627 -48 296 -84 377
-274 607 -84 101 -168 239 -168 274 0 9 -15 61 -34 117 -47 140 -61 233 -48
325 6 41 13 77 16 80 4 3 21 -8 39 -24 17 -17 64 -43 102 -59 39 -15 84 -34
100 -41 34 -14 71 -25 165 -49 70 -18 90 -22 188 -33 l64 -7 29 -53 c38 -69
79 -213 79 -278 0 -28 6 -67 14 -86 18 -41 62 -87 90 -92 39 -8 350 -28 494
-33 167 -6 192 -2 192 30 0 22 -3 22 -76 19 -67 -4 -337 12 -419 24 -16 2 -57
5 -89 5 -33 1 -70 5 -82 9 -36 14 -66 75 -69 138 -4 68 -35 182 -73 261 l-28
58 66 7 c36 3 90 6 120 6 30 0 118 14 195 30 77 17 154 32 170 35 52 7 108 22
165 44 30 11 63 21 73 21 9 0 25 4 35 9 9 6 38 17 64 27 59 20 78 42 85 91 4
28 1 42 -11 52 -9 7 -16 9 -16 4 0 -6 -28 -20 -62 -33 -35 -12 -67 -26 -73
-31 -5 -5 -19 -9 -32 -9 -12 0 -51 -11 -85 -23 -55 -21 -131 -41 -286 -77 -23
-6 -53 -10 -67 -10 -13 0 -26 -4 -30 -9 -3 -6 -13 -10 -23 -10 -9 0 -69 -5
-132 -11 -66 -7 -183 -10 -275 -7 -183 6 -290 29 -358 75 -23 16 -69 43 -103
60 -67 34 -179 133 -226 200 -43 62 -126 234 -145 300 -8 31 -19 82 -23 112
-5 30 -15 100 -24 155 -12 70 -16 155 -14 286 1 102 -2 190 -6 197 -13 21 -56
14 -66 -10 -10 -27 -5 -309 9 -448 13 -125 25 -191 50 -270 11 -36 21 -71 21
-78 0 -19 30 -81 56 -117 25 -36 74 -138 74 -157 0 -7 9 -28 20 -46 27 -44 27
-208 1 -342 -10 -52 -22 -149 -26 -215 -3 -66 -13 -151 -21 -190 -8 -38 -14
-82 -14 -98 0 -29 -29 -143 -53 -213 -14 -39 -119 -255 -158 -324 -12 -22 -19
-54 -19 -86 0 -78 -58 -274 -81 -274 -4 0 -20 11 -36 23 -15 13 -64 38 -108
56 -44 17 -136 59 -205 93 -69 34 -133 65 -142 70 -10 4 -25 8 -33 8 -10 0
-13 5 -9 12 4 6 3 8 -4 4 -12 -7 -116 15 -210 46 -51 16 -76 19 -134 13 -63
-7 -158 -39 -221 -76 -28 -16 -30 -7 -12 57 9 33 20 75 25 94 5 19 16 55 24
80 9 25 18 62 21 83 3 21 9 36 13 33 4 -2 8 35 10 82 2 47 9 126 17 176 22
144 55 327 59 335 3 4 14 41 25 82 21 78 44 131 92 214 16 28 29 57 29 65 0 9
24 52 53 97 30 44 59 102 66 129 7 27 20 69 29 94 12 36 16 105 19 340 3 195
9 322 18 375 27 151 42 220 59 271 20 58 65 154 66 139 0 -5 7 4 14 21 17 38
46 67 151 147 44 34 109 89 145 123 36 34 83 76 105 93 22 16 52 39 67 50 14
12 30 21 35 21 5 0 20 11 33 25 13 14 28 25 33 25 5 0 49 25 97 55 110 69 133
79 287 116 125 31 207 65 368 155 39 22 90 48 115 59 25 11 88 42 140 69 155
79 290 146 296 146 14 0 125 93 159 134 44 53 65 59 57 19 l-5 -28 39 35 c21
19 40 36 42 36 4 2 40 98 56 149 28 86 28 91 -1 104 -29 13 -34 10 -58 -34
-16 -30 -17 -29 -10 40 10 97 10 164 1 205 -8 34 -7 34 61 -36 37 -39 111
-110 164 -157z m-192 -159 c-20 -70 -36 -79 -35 -19 1 41 3 48 12 36 10 -13
13 -12 18 11 4 14 9 24 12 21 3 -3 0 -25 -7 -49z m-1268 -2785 c-9 -15 -10
-12 -10 17 0 29 1 32 10 18 7 -12 7 -24 0 -35z m3690 -159 c6 -66 9 -193 8
-284 -4 -206 5 -286 47 -425 39 -127 60 -178 88 -220 12 -16 28 -42 36 -57 8
-14 23 -38 33 -51 24 -34 47 -120 47 -182 0 -44 30 -144 81 -273 13 -30 12
-34 -13 -59 -22 -21 -41 -28 -95 -35 -120 -14 -533 -17 -662 -5 l-123 11 7 61
c8 75 71 391 92 465 21 73 83 196 125 246 30 37 65 85 133 184 46 66 117 225
142 320 22 84 26 116 27 272 0 97 4 171 8 164 4 -7 12 -67 19 -132z m-3671
-272 c21 -101 94 -276 138 -331 15 -19 43 -53 62 -75 50 -58 100 -124 100
-131 0 -4 20 -30 44 -58 24 -29 58 -82 75 -119 39 -85 81 -280 81 -378 0 -87
-26 -290 -38 -302 -4 -4 -35 -13 -68 -19 -32 -6 -89 -17 -125 -25 -142 -31
-391 -11 -478 39 -24 14 -77 55 -117 92 -87 79 -88 83 -43 205 22 59 33 113
38 176 6 75 11 96 33 125 14 18 56 90 92 159 53 99 71 144 87 220 11 52 22
106 25 120 3 14 9 70 14 125 5 55 11 129 15 165 3 36 8 89 10 117 2 29 7 63
11 75 7 19 10 13 16 -32 5 -30 17 -97 28 -148z m3370 -1967 c17 -21 -27 -85
-95 -137 -74 -58 -134 -108 -185 -154 -25 -22 -63 -50 -85 -61 -37 -19 -66
-25 -240 -53 -33 -6 -102 -23 -154 -39 -52 -17 -98 -28 -102 -25 -4 2 -10 17
-14 33 -5 23 -17 33 -68 55 -34 14 -69 26 -77 26 -41 1 29 21 171 50 150 30
394 100 434 124 11 7 77 36 147 66 70 30 149 71 175 91 53 41 74 47 93 24z
m-2700 -181 c194 -95 499 -193 714 -230 27 -5 51 -14 53 -20 2 -5 -27 -18 -64
-28 -115 -29 -253 0 -443 94 -153 76 -380 210 -380 225 0 13 33 1 120 -41z
m2950 21 c111 -15 169 -30 241 -63 41 -19 64 -28 204 -84 28 -11 97 -42 155
-70 97 -46 103 -51 86 -64 -11 -8 -25 -14 -31 -14 -6 0 -42 -16 -81 -35 -38
-19 -75 -35 -82 -35 -11 0 -41 -13 -187 -80 -106 -49 -165 -74 -215 -90 -30
-10 -91 -32 -135 -48 -44 -16 -105 -35 -135 -42 -30 -7 -71 -21 -90 -30 -59
-29 -360 -131 -445 -150 -44 -10 -123 -32 -175 -49 -52 -17 -144 -42 -205 -55
-60 -13 -146 -34 -190 -46 -44 -12 -105 -28 -135 -35 -71 -18 -345 -55 -404
-55 -24 0 -55 -4 -68 -9 -13 -5 -138 -12 -278 -16 -246 -6 -259 -5 -375 18
-66 14 -147 28 -180 31 -33 4 -100 15 -150 26 -147 31 -208 40 -268 40 -57 0
-147 19 -147 31 0 14 191 70 275 80 89 11 180 7 213 -10 21 -10 90 -28 197
-51 109 -23 397 -26 575 -5 74 8 144 17 156 20 21 5 52 50 42 61 -12 11 -196
23 -353 24 -126 0 -175 4 -229 19 -85 24 -100 37 -55 48 23 7 35 16 39 33 8
33 27 37 335 75 72 8 137 17 145 20 8 2 112 9 230 15 118 6 240 15 270 20 289
49 353 64 405 96 11 7 76 34 145 59 69 26 157 66 196 90 84 51 254 173 304
220 19 17 65 50 101 73 90 55 130 60 299 37z m-3060 -81 c195 -123 264 -164
271 -164 5 0 37 -14 71 -31 132 -64 250 -96 397 -106 68 -5 133 7 196 37 22
10 91 33 153 50 90 24 132 30 212 30 54 0 146 5 202 12 151 18 244 17 239 -2
-2 -8 -6 -40 -8 -70 -4 -45 -2 -58 14 -72 17 -16 21 -16 41 -2 23 16 20 39 -4
30 -15 -6 -17 6 -8 53 5 24 12 31 30 31 17 0 23 -6 26 -25 4 -35 21 -33 32 4
5 17 12 31 17 31 17 0 19 -21 3 -60 -27 -68 -81 -88 -293 -110 -97 -10 -248
-21 -336 -25 -221 -9 -325 -25 -410 -65 -97 -45 -119 -51 -205 -57 -102 -6
-145 -19 -168 -48 -25 -32 -52 -32 -216 0 -70 14 -146 25 -168 25 -22 0 -76 9
-121 19 -45 11 -118 25 -162 32 -44 7 -98 19 -120 27 -22 7 -98 29 -170 47
-132 34 -328 90 -422 122 -60 21 -68 38 -20 48 17 4 61 22 97 40 36 18 94 43
130 55 36 12 83 30 105 40 22 10 78 30 125 45 197 63 297 98 325 115 26 15 33
16 50 4 11 -7 54 -34 95 -60z m2275 -220 c-16 -8 -37 -21 -45 -28 -36 -30
-355 -134 -432 -140 -29 -3 -44 -3 -33 0 33 10 87 36 152 75 87 54 247 100
368 108 15 1 12 -3 -10 -15z m1640 -39 c22 -14 55 -32 74 -40 52 -25 114 -66
107 -72 -14 -15 -254 79 -270 106 -6 10 20 30 39 31 6 0 28 -11 50 -25z
m-4925 -75 c66 -33 219 -86 320 -109 52 -12 138 -35 190 -51 89 -27 204 -50
410 -84 47 -7 150 -25 230 -39 80 -15 185 -30 233 -35 85 -9 90 -11 130 -49
23 -22 51 -46 62 -52 38 -23 -99 -3 -207 30 -92 28 -119 32 -252 35 -166 4
-201 -2 -324 -54 -82 -34 -85 -35 -147 -24 -93 18 -143 15 -251 -15 -199 -53
-386 -22 -669 111 -27 14 -84 32 -125 41 -41 10 -100 24 -130 32 -30 7 -118
17 -195 20 -183 9 -131 23 80 22 191 -1 204 2 295 72 27 21 295 168 308 169 1
0 21 -9 42 -20z m4780 0 c58 -41 179 -91 256 -106 43 -8 117 -23 164 -34 47
-11 108 -22 135 -26 28 -3 93 -17 145 -30 52 -13 134 -28 182 -34 48 -6 105
-17 128 -25 22 -8 113 -30 202 -50 88 -20 172 -42 187 -49 14 -7 78 -32 142
-55 139 -50 459 -219 567 -298 42 -31 134 -114 203 -184 120 -120 128 -131
159 -210 30 -75 33 -95 33 -184 1 -92 -2 -107 -37 -195 -60 -151 -184 -389
-240 -460 -29 -36 -71 -90 -95 -120 -142 -184 -457 -351 -776 -410 -22 -4 -83
-17 -136 -28 -53 -12 -152 -28 -220 -37 -67 -9 -126 -18 -130 -21 -4 -2 -60
-6 -125 -9 -66 -2 -180 -9 -254 -15 -226 -18 -1144 -20 -1485 -4 -165 8 -331
19 -370 24 -38 5 -123 14 -189 20 -215 18 -542 73 -572 94 -15 11 -15 17 -4
52 7 21 31 71 53 109 22 39 56 98 75 133 19 35 50 87 69 115 18 29 49 84 68
124 19 40 56 96 81 124 26 29 62 77 82 108 72 115 157 228 226 302 39 41 94
106 121 143 28 37 57 76 65 87 13 17 32 20 170 24 187 7 508 33 529 44 9 5 81
20 161 35 80 15 183 36 230 47 168 40 234 48 417 48 176 1 416 -19 468 -39 14
-5 56 -15 93 -20 155 -25 251 -69 404 -185 114 -86 200 -159 316 -266 91 -85
131 -109 193 -115 74 -7 128 6 151 37 18 24 18 27 3 67 -18 44 -140 166 -192
192 -16 8 -58 38 -94 67 -58 47 -102 70 -314 168 -82 38 -182 69 -290 89 -211
40 -203 38 -208 62 -2 13 3 29 11 38 8 8 16 26 17 40 2 14 10 35 19 48 9 12
16 29 16 37 0 22 -48 79 -91 108 -31 20 -39 32 -39 56 0 74 -68 155 -168 200
-40 18 -72 22 -222 27 l-175 6 -60 37 c-82 52 -151 70 -265 71 -100 0 -111 -3
-310 -82 -100 -40 -200 -50 -269 -27 -43 14 -50 19 -40 31 6 8 16 14 21 14 5
0 43 16 86 35 42 19 118 50 169 69 50 20 106 42 125 50 18 9 78 33 133 55 55
21 125 52 155 69 66 36 102 39 140 12z m-2193 -86 c-3 -3 -12 -4 -19 -1 -8 3
-5 6 6 6 11 1 17 -2 13 -5z m-72 -13 c-6 -5 -95 -14 -200 -20 -183 -10 -309
-23 -405 -41 -63 -12 -62 -4 2 15 65 19 191 33 403 44 88 4 171 9 185 10 14 0
20 -3 15 -8z m-3405 -148 c-8 -4 -35 -15 -60 -26 -37 -17 -69 -21 -175 -22
-167 -2 -240 -14 -288 -48 -21 -14 -46 -29 -56 -32 -27 -8 -41 -49 -48 -137
-5 -65 -3 -84 12 -112 22 -41 71 -66 129 -66 33 0 52 -7 80 -29 20 -16 36 -33
34 -38 -1 -4 -44 -22 -94 -39 -132 -44 -245 -120 -309 -208 -16 -22 -44 -55
-62 -74 -32 -33 -63 -90 -63 -117 0 -16 28 -27 45 -18 7 5 35 37 61 73 27 36
81 98 120 138 96 96 222 158 404 199 213 47 397 35 735 -47 44 -11 170 -29
280 -40 110 -11 211 -22 225 -25 14 -3 101 -12 193 -20 92 -8 173 -17 178 -21
34 -21 -337 -309 -486 -378 -33 -16 -105 -50 -160 -76 -55 -27 -125 -58 -155
-68 -30 -11 -102 -36 -160 -57 -142 -50 -178 -59 -375 -99 -242 -49 -418 -73
-590 -82 -128 -6 -170 -16 -180 -42 -19 -50 71 -51 450 -6 297 36 510 84 800
181 142 47 392 170 566 278 60 38 260 189 280 212 8 10 31 32 50 48 18 17 60
60 92 97 71 80 168 131 239 126 39 -3 43 -5 40 -28 -2 -14 -23 -45 -47 -70
-23 -25 -58 -66 -77 -91 -105 -140 -364 -416 -473 -504 -33 -27 -82 -69 -108
-94 -26 -25 -67 -59 -90 -76 -23 -16 -94 -73 -157 -125 -63 -52 -132 -108
-152 -123 -42 -31 -44 -35 -25 -61 13 -18 15 -18 43 0 16 10 52 37 80 59 28
22 95 72 149 110 53 39 109 81 124 94 14 13 41 35 60 50 72 54 131 109 289
269 204 206 319 342 459 545 30 44 36 47 75 47 133 -1 328 -37 328 -61 0 -20
-58 -94 -172 -221 -38 -42 -78 -89 -90 -105 -38 -49 -165 -177 -213 -213 -26
-19 -83 -66 -127 -105 -77 -66 -119 -97 -268 -198 -157 -106 -388 -244 -527
-313 -29 -15 -53 -30 -53 -33 0 -4 11 -18 24 -30 l24 -23 89 45 c103 52 245
130 323 177 108 66 389 272 469 345 25 22 70 62 100 89 102 90 323 320 380
394 112 148 142 193 144 219 3 30 16 36 111 47 l59 8 -44 -52 c-24 -29 -75
-89 -114 -134 -38 -45 -85 -102 -104 -126 -19 -25 -55 -68 -80 -96 -45 -50
-58 -68 -149 -198 -24 -33 -58 -77 -77 -96 -36 -37 -191 -267 -205 -305 -6
-15 -4 -29 4 -40 11 -15 16 -15 33 -4 12 7 28 27 36 44 8 17 37 60 64 95 27
36 54 74 60 85 6 11 34 49 61 85 105 135 125 152 86 70 -13 -28 -33 -72 -43
-98 -10 -26 -38 -92 -61 -147 -23 -55 -51 -129 -62 -165 -11 -36 -38 -115 -59
-176 -21 -61 -45 -135 -52 -165 -13 -49 -18 -56 -63 -81 -59 -33 -101 -38
-309 -42 -139 -3 -187 -9 -360 -44 -110 -22 -265 -52 -345 -67 -80 -15 -176
-36 -215 -46 -38 -11 -142 -26 -230 -34 -88 -8 -194 -19 -235 -24 -108 -15
-229 -13 -365 4 -66 9 -158 20 -205 26 -89 10 -336 86 -402 123 -57 33 -198
137 -231 170 -50 52 -140 167 -194 247 -100 147 -130 205 -166 314 -47 141
-59 298 -33 414 46 201 196 387 493 608 43 32 110 83 150 113 130 100 157 117
260 169 129 64 303 107 488 119 168 11 183 12 165 5z m290 -47 c173 -39 316
-91 440 -160 34 -19 134 -52 195 -65 132 -26 245 -24 470 10 l81 12 109 -52
c145 -71 177 -81 251 -81 73 0 225 -24 285 -45 22 -8 77 -19 122 -25 45 -6
111 -17 147 -24 l65 -12 -80 -14 c-96 -17 -217 -17 -288 -1 -35 9 -118 12
-252 9 -174 -3 -205 -6 -240 -22 -22 -11 -42 -23 -45 -26 -3 -3 -18 -11 -35
-17 -16 -6 -61 -23 -99 -38 -67 -26 -70 -26 -172 -15 -58 6 -157 19 -222 30
-64 10 -144 22 -177 26 -33 3 -70 10 -82 15 -11 4 -86 17 -165 29 -78 11 -199
32 -268 45 -181 34 -274 38 -428 21 -73 -8 -137 -18 -143 -22 -14 -9 -99 24
-126 49 -30 27 -31 84 -1 129 13 19 46 45 79 61 50 25 64 28 125 24 42 -2 103
-16 157 -36 95 -33 122 -37 133 -20 8 14 -27 44 -76 66 -19 8 -50 26 -68 40
-48 36 -40 61 28 95 46 23 69 27 135 28 44 0 109 -7 145 -14z m5286 -30 c38
-13 92 -37 119 -52 47 -27 58 -29 210 -35 144 -6 252 -21 265 -39 3 -3 21 -17
40 -30 59 -41 70 -54 70 -77 0 -13 5 -23 11 -23 6 0 9 -10 7 -22 -3 -24 -70
-63 -127 -74 -24 -5 -30 -2 -36 15 -3 12 -17 28 -30 37 -21 14 -26 13 -71 -14
-45 -27 -49 -31 -46 -64 3 -34 2 -35 -44 -44 -26 -5 -49 -15 -52 -22 -3 -11
11 -12 64 -9 38 3 76 7 84 10 8 3 35 11 60 17 49 12 209 77 225 91 12 12 55
12 55 0 0 -5 -7 -14 -15 -21 -8 -7 -15 -21 -15 -31 0 -10 -9 -23 -21 -30 -28
-15 -152 -49 -160 -43 -4 2 -21 -3 -38 -12 -34 -17 -37 -40 -5 -38 44 2 180
36 194 48 17 15 79 46 92 46 19 0 6 -31 -19 -43 -30 -15 -149 -47 -175 -47
-23 0 -44 -28 -31 -41 7 -7 34 -4 88 11 42 12 79 19 82 16 3 -2 -20 -12 -51
-21 -31 -9 -56 -21 -56 -26 0 -9 -67 -7 -235 7 -172 15 -379 12 -465 -6 -47
-10 -110 -21 -140 -25 -159 -19 -275 -39 -360 -60 -193 -50 -541 -74 -647 -46
-22 6 -67 13 -99 16 -73 6 -175 28 -234 50 -25 10 -58 18 -75 19 -25 1 -30 -3
-33 -24 -2 -21 7 -32 52 -62 60 -41 146 -75 196 -77 40 -2 -67 -41 -155 -57
-22 -4 -49 -13 -60 -20 -11 -8 -30 -14 -43 -14 -13 0 -33 -5 -45 -12 -29 -15
-343 -125 -427 -148 -98 -28 -309 -104 -357 -128 -23 -12 -64 -30 -90 -41 -26
-10 -82 -34 -123 -54 -41 -19 -138 -55 -215 -80 -77 -25 -174 -60 -215 -77
-41 -18 -93 -38 -115 -45 -22 -7 -84 -33 -138 -59 -54 -25 -109 -49 -123 -52
-23 -6 -24 -5 -14 22 16 40 58 138 90 209 16 33 43 98 60 144 18 46 41 97 52
115 11 17 42 71 70 121 28 49 76 123 108 165 31 41 65 91 75 110 24 49 90 136
144 192 l46 47 110 15 c61 8 180 20 265 27 85 6 158 13 162 15 4 2 37 8 75 13
109 15 394 71 443 87 25 9 81 24 125 34 44 10 103 24 130 33 28 8 95 26 150
41 55 15 116 33 135 41 52 20 322 103 364 110 29 6 43 3 71 -16 19 -13 35 -27
35 -31 0 -5 10 -8 23 -8 29 0 51 -15 43 -29 -4 -7 -39 -11 -86 -11 -70 0 -81
-2 -94 -22 -9 -12 -16 -30 -16 -40 0 -28 51 -26 260 13 30 6 69 14 85 19 46
13 185 76 214 98 45 33 165 69 237 71 22 0 72 -10 110 -23z m-5703 -33 c24
-12 37 -33 21 -33 -9 0 -94 51 -94 57 0 6 39 -6 73 -24z m-143 -31 c0 -13 -3
-12 -20 3 -11 10 -17 22 -14 27 8 12 34 -11 34 -30z m-91 -1 c69 -33 21 -46
-72 -20 -52 15 -62 30 -25 40 26 8 49 3 97 -20z m-53 -71 l27 -11 -20 -22
c-33 -38 -53 -75 -53 -101 0 -32 -7 -35 -55 -27 -33 5 -43 13 -57 41 -23 49
-1 120 42 134 20 6 82 -1 116 -14z m6504 -215 c15 -18 5 -35 -21 -35 -24 0
-37 29 -18 41 19 12 25 11 39 -6z m260 -225 c-8 -5 -19 -10 -25 -10 -5 0 -3 5
5 10 8 5 20 10 25 10 6 0 3 -5 -5 -10z m686 -263 c33 -23 124 -86 204 -140
172 -115 172 -114 194 -149 28 -43 15 -61 -37 -53 -23 4 -51 12 -62 18 -11 6
-90 81 -175 168 -85 86 -165 162 -177 168 -23 12 -31 31 -14 31 5 0 35 -19 67
-43z m-4806 -38 c-7 -11 -14 -18 -17 -15 -8 8 5 36 17 36 7 0 7 -6 0 -21z
m1794 -86 c-15 -21 -32 -39 -36 -41 -4 -2 -8 -8 -8 -13 0 -27 -45 -101 -94
-154 -31 -33 -72 -89 -93 -125 -20 -36 -51 -81 -70 -100 -18 -19 -33 -41 -33
-49 0 -11 -14 -13 -81 -7 -44 4 -113 14 -152 22 -143 32 -223 46 -272 51 -27
3 -54 9 -60 13 -5 5 -44 12 -85 16 -41 4 -83 10 -94 14 -16 5 -13 8 15 19 19
7 57 22 84 33 28 11 84 33 125 48 41 15 95 36 120 47 89 41 127 56 235 93 61
20 148 51 195 68 47 16 105 36 130 42 77 20 154 42 175 51 11 4 22 8 24 8 2 1
-9 -16 -25 -36z m-1834 -669 c0 -10 -79 -116 -116 -156 -49 -53 -57 -49 -52
22 5 72 16 86 95 116 63 25 73 27 73 18z"/>
<path d="M5790 10314 c-60 -16 -118 -51 -138 -84 -20 -32 -6 -40 40 -24 24 8
84 15 142 16 84 1 117 -3 196 -26 52 -16 120 -29 150 -30 51 -1 55 1 58 23 9
58 -93 107 -269 130 -104 13 -111 13 -179 -5z"/>
<path d="M6680 10315 c-112 -19 -177 -43 -205 -77 -30 -35 -30 -41 -8 -63 21
-21 74 -16 188 20 44 14 120 28 170 31 86 6 93 5 158 -24 56 -26 69 -29 74
-16 7 19 -41 80 -80 101 -83 42 -166 50 -297 28z"/>
<path d="M5818 10045 c-75 -30 -132 -78 -146 -121 -9 -31 -8 -38 16 -66 14
-17 46 -40 71 -51 117 -51 461 39 422 111 -28 53 -112 114 -187 137 -66 20
-108 18 -176 -10z m195 -49 c18 -7 50 -29 72 -49 l40 -35 -30 -12 c-17 -7 -45
-18 -63 -26 -51 -22 -150 -18 -197 7 -22 12 -53 28 -69 37 -28 14 -28 16 -10
30 74 56 187 78 257 48z"/>
<path d="M6703 10050 c-89 -25 -193 -103 -193 -145 0 -27 57 -53 159 -75 57
-12 115 -26 128 -31 102 -39 268 40 246 117 -6 25 -95 96 -160 128 -58 30 -93
31 -180 6z m211 -81 c25 -19 46 -37 46 -40 0 -4 -24 -17 -52 -30 -83 -37 -254
-31 -318 11 -13 8 -10 14 15 35 65 53 104 67 187 62 69 -3 81 -7 122 -38z"/>
<path d="M6312 9705 c-15 -33 -15 -35 3 -35 10 0 15 10 15 30 0 37 -3 37 -18
5z"/>
<path d="M6384 9717 c-7 -20 -2 -47 11 -50 14 -3 19 43 6 56 -7 7 -12 6 -17
-6z"/>
<path d="M6291 9619 c-6 -18 -14 -57 -18 -87 -4 -35 -14 -64 -29 -82 -30 -35
-30 -61 -1 -86 56 -50 106 -55 180 -18 75 38 85 63 43 109 -16 17 -29 52 -41
110 -19 88 -37 107 -43 44 -2 -19 2 -60 9 -92 14 -66 9 -75 -41 -79 l-35 -3 1
50 c0 28 2 74 5 104 5 63 -12 80 -30 30z"/>
<path d="M6202 9221 c-16 -18 -25 -22 -28 -13 -3 6 -14 12 -24 12 -19 0 -24
-13 -35 -92 -6 -39 -4 -49 9 -54 9 -3 22 -1 30 5 14 12 43 -13 65 -56 17 -34
61 -52 133 -55 69 -2 74 1 161 102 13 15 24 19 43 14 34 -9 44 9 32 55 -18 63
-38 93 -58 88 -11 -3 -24 1 -30 8 -9 11 -44 14 -143 13 -128 -2 -133 -2 -155
-27z"/>
<path d="M6980 8566 c-61 -23 -132 -62 -220 -121 -134 -91 -170 -117 -217
-161 -37 -33 -44 -46 -41 -70 2 -22 9 -30 28 -32 19 -2 40 12 84 53 32 31 99
82 150 113 50 31 109 69 130 84 21 15 44 28 49 28 20 0 118 51 123 65 8 20
-14 55 -34 54 -9 0 -33 -6 -52 -13z"/>
<path d="M5616 8557 c-42 -31 -15 -54 189 -160 59 -30 83 -46 235 -147 76 -50
118 -61 139 -36 10 11 5 20 -21 45 -57 55 -225 163 -373 242 -38 20 -83 44
-100 53 -36 19 -46 20 -69 3z"/>
<path d="M6081 6199 c-36 -21 -72 -39 -82 -39 -9 0 -51 -18 -93 -40 -41 -22
-90 -42 -108 -45 -18 -2 -58 -12 -88 -22 -76 -23 -281 -23 -369 1 -70 19 -87
13 -78 -26 13 -50 241 -76 432 -49 67 10 272 80 344 117 42 23 121 102 121
122 0 23 -17 18 -79 -19z"/>
<path d="M6375 6220 c-11 -17 6 -54 38 -82 36 -33 94 -55 109 -40 15 15 6 43
-17 56 -11 6 -38 22 -60 36 -22 14 -45 29 -52 33 -6 4 -14 3 -18 -3z"/>
<path d="M6667 6068 c-19 -10 -23 -33 -7 -43 22 -14 172 -36 270 -41 112 -5
284 18 308 40 7 7 10 20 6 30 -6 17 -14 18 -73 10 -114 -14 -391 -13 -442 1
-30 8 -51 10 -62 3z"/>
<path d="M6330 6035 c-5 -14 -7 -38 -4 -55 5 -25 14 -32 48 -42 51 -14 66 -12
89 14 31 37 22 56 -39 83 -70 31 -82 31 -94 0z"/>
<path d="M5390 5117 c0 -13 19 -59 41 -100 5 -9 18 -41 29 -70 11 -28 38 -71
60 -93 44 -46 72 -56 222 -75 94 -12 128 -4 128 30 0 21 -47 35 -86 25 -31 -8
-148 12 -196 32 -27 12 -42 29 -59 63 -12 25 -26 54 -31 63 -4 10 -8 25 -8 33
0 8 -4 15 -9 15 -5 0 -12 11 -15 25 -12 46 -76 90 -76 52z"/>
<path d="M7111 5112 c-10 -19 -15 -44 -26 -140 -4 -42 -55 -121 -79 -123 -17
-2 -87 -6 -244 -14 -122 -7 -155 -5 -223 10 -68 16 -82 17 -89 5 -34 -55 166
-80 470 -58 106 7 147 19 157 45 4 10 18 36 32 57 19 28 27 59 33 115 4 42 9
85 10 96 4 26 -28 32 -41 7z"/>
<path d="M6095 4833 c-28 -7 -45 -23 -45 -41 0 -12 8 -13 42 -8 46 8 68 21 68
42 0 14 -25 16 -65 7z"/>
<path d="M5524 4745 c-3 -8 -1 -29 5 -47 24 -79 36 -159 40 -280 1 -35 5 -48
16 -48 30 0 38 40 31 151 -8 134 -37 239 -67 239 -11 0 -22 -7 -25 -15z"/>
<path d="M7043 4752 c-9 -6 -12 -58 -10 -203 2 -223 0 -231 -77 -236 -22 -2
-68 -5 -101 -8 -204 -16 -311 -17 -354 -2 -49 17 -71 13 -71 -13 0 -13 15 -23
52 -36 44 -14 76 -16 222 -10 342 13 356 17 377 112 9 42 10 95 2 220 -9 162
-16 191 -40 176z"/>
<path d="M6120 4299 c-49 -17 -78 -19 -250 -17 -107 1 -201 -1 -207 -5 -7 -5
-13 -14 -13 -22 0 -21 84 -28 281 -23 157 3 178 6 217 26 28 15 42 29 42 42 0
24 0 24 -70 -1z"/>
<path d="M6985 4190 c-4 -7 -4 -46 0 -88 14 -144 14 -148 -16 -196 -16 -26
-39 -48 -52 -51 -29 -8 -377 1 -433 10 -78 13 -58 -30 25 -54 49 -14 353 -16
411 -2 57 13 75 30 104 97 l28 64 -14 112 c-11 89 -17 113 -30 116 -9 2 -19
-2 -23 -8z"/>
<path d="M5694 4108 c4 -24 9 -95 12 -159 6 -117 6 -117 38 -140 26 -20 45
-25 121 -27 138 -6 318 27 340 62 17 27 -11 36 -64 21 -94 -28 -226 -47 -284
-42 -85 8 -97 22 -97 116 0 67 -4 96 -25 189 -4 14 -13 22 -26 22 -19 0 -20
-4 -15 -42z"/>
<path d="M6274 3691 c-137 -62 -64 -186 86 -147 75 19 107 62 89 116 -19 52
-97 66 -175 31z"/>
<path d="M8312 1778 c-19 -19 -15 -35 27 -96 94 -138 165 -212 276 -286 127
-84 258 -140 407 -175 79 -18 413 -32 503 -21 325 41 375 55 349 97 -14 23
-68 22 -214 -1 -58 -10 -173 -20 -255 -23 -316 -12 -537 43 -747 185 -85 58
-207 174 -228 217 -47 97 -88 133 -118 103z"/>
<path d="M7750 1695 c-10 -12 0 -30 58 -107 140 -185 216 -259 394 -384 158
-111 496 -256 708 -304 19 -4 55 -12 80 -18 196 -48 448 -86 625 -96 96 -6
130 -16 109 -34 -5 -5 -65 -14 -134 -21 -69 -7 -141 -17 -160 -21 -19 -5 -123
-19 -230 -30 -163 -18 -256 -21 -560 -21 -201 0 -427 5 -502 11 -152 12 -178
7 -178 -35 0 -17 7 -26 23 -30 12 -3 144 -9 292 -14 402 -13 862 -3 935 20 19
6 111 17 205 25 162 14 391 59 564 112 67 21 86 45 54 71 -17 15 -49 19 -165
25 -152 8 -484 40 -583 57 -276 47 -277 47 -545 135 -166 55 -364 144 -469
211 -82 52 -237 178 -303 246 -32 33 -83 95 -113 138 -56 80 -80 94 -105 64z"/>
</g>
</svg>
